<svg xmlns="http://www.w3.org/2000/svg" id="canvas" viewBox="280.056 458.629 726.941 122.093"><path d="M 315.34,513.47 C 314.29 514.29, 313.40 515.50, 312.09 518.39 C 310.78 521.28, 310.50 523.51, 308.79 527.91 C 307.08 532.32, 305.74 535.32, 303.53 540.42 C 301.32 545.52, 300.17 548.62, 297.72 553.43 C 295.27 558.25, 293.73 560.73, 291.29 564.50 C 288.85 568.27, 286.97 569.81, 285.53 572.27 C 284.09 574.74, 283.90 576.08, 284.09 576.84 C 284.28 577.61, 285.18 577.67, 286.49 576.09 C 287.80 574.52, 288.47 572.68, 290.64 568.97 C 292.80 565.25, 293.92 562.51, 297.31 557.52 C 300.70 552.54, 302.92 549.38, 307.59 544.06 C 312.26 538.74, 315.19 535.65, 320.65 530.93 C 326.11 526.21, 329.36 524.07, 334.89 520.47 C 340.43 516.87, 343.50 515.24, 348.33 512.94 C 353.15 510.64, 355.47 509.81, 359.01 508.96 C 362.56 508.12, 363.97 508.41, 366.04 508.72 C 368.10 509.03, 368.72 509.17, 369.33 510.52 C 369.93 511.88, 369.54 512.72, 369.08 515.51 C 368.61 518.30, 368.23 520.51, 366.99 524.47 C 365.76 528.43, 364.91 531.13, 362.90 535.31 C 360.89 539.48, 359.18 541.79, 356.95 545.35 C 354.73 548.91, 352.99 550.58, 351.78 553.10 C 350.57 555.63, 350.34 557.18, 350.91 557.97 C 351.48 558.76, 352.77 558.37, 354.65 557.05 C 356.53 555.74, 357.52 554.42, 360.31 551.39 C 363.10 548.36, 364.94 545.89, 368.60 541.88 C 372.26 537.87, 374.39 535.42, 378.61 531.35 C 382.84 527.27, 385.33 525.05, 389.73 521.51 C 394.13 517.96, 396.30 516.29, 400.61 513.62 C 404.92 510.96, 407.45 509.74, 411.29 508.18 C 415.13 506.63, 417.12 506.30, 419.83 505.84 C 422.54 505.38, 423.49 505.21, 424.82 505.89 C 426.16 506.56, 426.18 507.25, 426.51 509.22 C 426.84 511.19, 426.81 512.68, 426.48 515.73 C 426.15 518.78, 425.91 520.75, 424.88 524.47 C 423.85 528.19, 422.87 530.51, 421.33 534.34 C 419.79 538.16, 418.76 540.22, 417.18 543.61 C 415.60 547.00, 414.36 548.62, 413.41 551.28 C 412.46 553.94, 412.51 555.29, 412.43 556.90 C 412.36 558.51, 412.71 558.79, 413.03 559.31 C 413.36 559.83, 413.60 559.79, 414.07 559.49 C 414.54 559.19, 414.57 559.07, 415.38 557.81 C 416.19 556.55, 416.98 555.69, 418.12 553.19 C 419.26 550.69, 419.70 548.78, 421.10 545.32 C 422.50 541.85, 423.53 539.80, 425.13 535.88 C 426.73 531.96, 427.86 529.66, 429.11 525.72 C 430.35 521.79, 431.02 519.74, 431.34 516.20 C 431.65 512.66, 431.68 510.71, 430.70 508.04 C 429.72 505.37, 428.73 504.08, 426.43 502.84 C 424.13 501.60, 422.52 501.37, 419.22 501.82 C 415.92 502.28, 413.99 503.24, 409.95 505.11 C 405.92 506.97, 403.44 508.31, 399.05 511.16 C 394.66 514.00, 392.49 515.74, 388.00 519.34 C 383.50 522.95, 380.98 525.17, 376.59 529.19 C 372.20 533.21, 369.95 535.59, 366.05 539.43 C 362.15 543.26, 359.97 545.39, 357.10 548.38 C 354.23 551.36, 352.86 552.39, 351.72 554.35 C 350.58 556.31, 350.62 557.91, 351.41 558.16 C 352.19 558.41, 353.86 557.74, 355.65 555.59 C 357.45 553.44, 358.23 551.12, 360.38 547.40 C 362.52 543.69, 364.25 541.32, 366.38 537.00 C 368.50 532.68, 369.54 529.99, 371.01 525.80 C 372.47 521.61, 373.44 519.43, 373.69 516.04 C 373.95 512.65, 373.66 511.02, 372.27 508.85 C 370.87 506.68, 369.52 505.79, 366.71 505.18 C 363.89 504.57, 362.11 504.73, 358.20 505.81 C 354.29 506.89, 352.07 508.03, 347.15 510.57 C 342.24 513.11, 339.21 514.79, 333.61 518.52 C 328.01 522.24, 324.73 524.42, 319.16 529.19 C 313.58 533.97, 310.61 537.09, 305.73 542.39 C 300.85 547.68, 298.47 550.78, 294.74 555.67 C 291.01 560.56, 289.40 563.07, 287.09 566.84 C 284.78 570.62, 283.67 572.35, 283.19 574.53 C 282.72 576.70, 283.55 577.67, 284.73 577.72 C 285.90 577.76, 287.17 577.04, 289.06 574.75 C 290.96 572.46, 291.91 570.26, 294.20 566.27 C 296.48 562.29, 298.02 559.74, 300.49 554.84 C 302.96 549.94, 304.20 546.88, 306.57 541.78 C 308.93 536.69, 310.41 533.73, 312.31 529.36 C 314.21 525.00, 315.08 522.97, 316.08 519.96 C 317.08 516.95, 317.47 515.61, 317.32 514.31 C 317.17 513.02, 316.39 512.66, 315.34 513.47" style="stroke: black; fill: black;"/><path d="M 475.59,514.38 C 474.69 514.93, 474.30 515.71, 473.12 517.72 C 471.95 519.73, 471.20 521.33, 469.71 524.42 C 468.22 527.52, 467.40 529.67, 465.67 533.19 C 463.93 536.72, 462.71 538.89, 461.04 542.04 C 459.37 545.19, 458.46 546.64, 457.32 548.94 C 456.17 551.25, 455.71 552.08, 455.30 553.57 C 454.90 555.05, 455.05 555.73, 455.29 556.37 C 455.52 557.01, 455.93 557.04, 456.47 556.78 C 457.02 556.53, 456.99 556.17, 458.02 555.09 C 459.06 554.02, 460.19 553.60, 461.63 551.43 C 463.06 549.25, 463.53 547.42, 465.19 544.21 C 466.85 541.00, 468.07 538.87, 469.92 535.37 C 471.78 531.88, 472.91 529.89, 474.46 526.74 C 476.02 523.59, 477.07 521.97, 477.70 519.61 C 478.33 517.26, 478.03 516.03, 477.60 514.98 C 477.18 513.93, 476.48 513.83, 475.59 514.38" style="stroke: black; fill: black;"/><path d="M 495.10,462.82 C 495.39 462.07, 495.56 461.65, 495.47 461.63 C 495.38 461.60, 495.10 462.07, 494.64 462.70 C 494.18 463.32, 493.51 464.06, 493.17 464.77 C 492.83 465.49, 492.76 466.15, 492.94 466.27 C 493.11 466.39, 493.61 466.07, 494.04 465.38 C 494.47 464.69, 494.82 463.57, 495.10 462.82" style="stroke: black; fill: black;"/><path d="M 514.12,509.92 C 513.23 510.68, 512.81 511.75, 511.75 514.19 C 510.69 516.62, 510.31 518.45, 508.83 522.10 C 507.35 525.74, 506.42 528.21, 504.35 532.42 C 502.29 536.64, 500.85 539.20, 498.49 543.17 C 496.14 547.13, 494.78 549.00, 492.58 552.24 C 490.37 555.48, 488.84 556.99, 487.47 559.37 C 486.10 561.75, 485.71 562.94, 485.73 564.16 C 485.76 565.38, 486.46 565.87, 487.58 565.47 C 488.70 565.07, 489.60 564.46, 491.34 562.16 C 493.08 559.87, 493.60 557.69, 496.27 554.00 C 498.94 550.31, 500.72 547.84, 504.67 543.71 C 508.62 539.59, 511.17 537.22, 516.02 533.37 C 520.86 529.51, 523.71 527.47, 528.89 524.42 C 534.07 521.38, 537.10 520.01, 541.92 518.15 C 546.74 516.30, 549.25 515.73, 552.97 515.15 C 556.70 514.57, 558.23 514.76, 560.54 515.24 C 562.85 515.71, 563.56 516.06, 564.52 517.52 C 565.48 518.97, 565.44 520.02, 565.32 522.50 C 565.20 524.98, 564.99 526.60, 563.90 529.92 C 562.82 533.24, 561.77 535.37, 559.87 539.08 C 557.98 542.79, 556.71 545.01, 554.43 548.45 C 552.16 551.89, 550.45 553.47, 548.49 556.26 C 546.52 559.06, 545.65 560.49, 544.62 562.43 C 543.59 564.36, 543.37 565.07, 543.34 565.95 C 543.31 566.83, 543.60 567.08, 544.46 566.81 C 545.31 566.54, 546.08 566.19, 547.61 564.60 C 549.14 563.01, 550.09 561.66, 552.13 558.87 C 554.17 556.08, 555.54 554.22, 557.81 550.64 C 560.09 547.07, 561.44 544.84, 563.51 540.99 C 565.58 537.14, 566.83 535.08, 568.16 531.38 C 569.48 527.69, 570.25 525.73, 570.13 522.50 C 570.01 519.28, 569.32 517.49, 567.57 515.27 C 565.81 513.05, 564.41 512.08, 561.37 511.40 C 558.34 510.72, 556.49 511.04, 552.38 511.86 C 548.28 512.68, 545.83 513.44, 540.86 515.50 C 535.89 517.56, 532.85 519.00, 527.54 522.14 C 522.24 525.29, 519.36 527.36, 514.34 531.22 C 509.32 535.08, 506.72 537.44, 502.44 541.46 C 498.16 545.47, 496.09 547.77, 492.92 551.29 C 489.75 554.82, 488.05 556.45, 486.59 559.07 C 485.12 561.69, 485.39 563.11, 485.60 564.40 C 485.80 565.68, 486.42 565.97, 487.63 565.51 C 488.85 565.05, 490.01 564.34, 491.66 562.11 C 493.31 559.87, 493.88 557.74, 495.87 554.32 C 497.86 550.90, 499.22 549.04, 501.61 545.02 C 504.00 541.00, 505.58 538.44, 507.84 534.21 C 510.10 529.98, 511.22 527.57, 512.93 523.88 C 514.64 520.18, 515.72 518.43, 516.38 515.74 C 517.04 513.04, 516.67 511.57, 516.22 510.40 C 515.77 509.24, 515.01 509.16, 514.12 509.92" style="stroke: black; fill: black;"/><path d="M 639.48,509.27 C 639.25 508.39, 638.76 507.71, 637.28 506.87 C 635.81 506.04, 634.69 505.00, 632.12 505.11 C 629.54 505.21, 627.73 505.78, 624.41 507.39 C 621.09 509.01, 619.38 510.40, 615.50 513.18 C 611.62 515.95, 609.20 517.80, 605.03 521.28 C 600.86 524.76, 598.44 526.79, 594.67 530.57 C 590.89 534.34, 588.93 536.48, 586.16 540.15 C 583.40 543.83, 581.96 545.69, 580.83 548.94 C 579.70 552.20, 579.65 553.85, 580.53 556.43 C 581.42 559.00, 582.65 560.43, 585.24 561.82 C 587.84 563.21, 589.72 563.59, 593.51 563.38 C 597.30 563.16, 599.75 562.30, 604.20 560.76 C 608.64 559.22, 611.06 558.05, 615.76 555.69 C 620.45 553.33, 622.97 551.96, 627.66 548.97 C 632.36 545.98, 634.96 544.11, 639.22 540.73 C 643.48 537.35, 645.58 535.36, 648.97 532.08 C 652.35 528.80, 654.16 527.16, 656.15 524.32 C 658.14 521.47, 658.76 519.87, 658.90 517.86 C 659.04 515.85, 658.44 514.76, 656.85 514.28 C 655.26 513.80, 653.38 513.96, 650.96 515.47 C 648.54 516.98, 647.10 518.85, 644.75 521.82 C 642.41 524.79, 641.30 526.88, 639.24 530.32 C 637.19 533.76, 636.00 535.66, 634.49 539.02 C 632.97 542.39, 632.23 544.26, 631.68 547.12 C 631.13 549.98, 631.56 551.48, 631.75 553.34 C 631.94 555.20, 632.19 555.53, 632.65 556.42 C 633.11 557.32, 633.53 557.58, 634.05 557.82 C 634.57 558.06, 635.06 557.85, 635.24 557.61 C 635.42 557.38, 635.00 556.82, 634.96 556.65 C 634.93 556.48, 634.94 556.91, 635.06 556.76 C 635.17 556.61, 635.35 556.58, 635.53 555.91 C 635.70 555.23, 635.71 554.95, 635.95 553.39 C 636.19 551.84, 636.17 550.65, 636.71 548.14 C 637.26 545.63, 637.36 543.91, 638.65 540.84 C 639.95 537.77, 641.13 535.91, 643.19 532.79 C 645.25 529.68, 646.69 527.89, 648.95 525.29 C 651.21 522.68, 652.90 521.56, 654.50 519.76 C 656.10 517.95, 656.63 516.82, 656.94 516.27 C 657.24 515.71, 656.83 515.84, 656.01 516.97 C 655.18 518.10, 654.68 519.36, 652.80 521.92 C 650.92 524.48, 649.70 526.47, 646.61 529.76 C 643.52 533.06, 641.46 535.06, 637.35 538.39 C 633.24 541.73, 630.67 543.57, 626.07 546.44 C 621.47 549.31, 618.94 550.61, 614.33 552.74 C 609.72 554.88, 607.24 555.88, 603.03 557.11 C 598.82 558.34, 596.46 558.72, 593.26 558.90 C 590.07 559.08, 588.92 558.72, 587.05 558.00 C 585.17 557.28, 584.38 556.85, 583.87 555.30 C 583.37 553.76, 583.52 552.91, 584.53 550.28 C 585.54 547.66, 586.44 545.66, 588.91 542.16 C 591.39 538.67, 593.27 536.48, 596.92 532.82 C 600.56 529.16, 602.98 527.14, 607.13 523.86 C 611.28 520.58, 613.79 518.79, 617.66 516.42 C 621.52 514.04, 623.48 513.16, 626.44 512.00 C 629.40 510.84, 630.61 510.79, 632.47 510.61 C 634.33 510.43, 634.56 510.97, 635.75 511.10 C 636.95 511.24, 637.69 511.63, 638.43 511.27 C 639.18 510.90, 639.71 510.15, 639.48 509.27" style="stroke: black; fill: black;"/><path d="M 734.50,507.54 C 733.89 506.59, 732.82 505.75, 730.76 504.98 C 728.69 504.22, 727.25 503.83, 724.16 503.72 C 721.07 503.60, 718.96 503.75, 715.31 504.40 C 711.66 505.06, 709.59 505.87, 705.93 507.01 C 702.27 508.14, 700.17 508.59, 697.02 510.07 C 693.87 511.55, 692.21 512.39, 690.18 514.39 C 688.14 516.39, 687.53 517.76, 686.85 520.06 C 686.18 522.37, 686.00 523.55, 686.81 525.92 C 687.62 528.29, 688.60 529.84, 690.92 531.90 C 693.23 533.96, 695.18 534.68, 698.37 536.21 C 701.57 537.73, 703.40 538.10, 706.88 539.52 C 710.35 540.93, 712.42 541.84, 715.75 543.29 C 719.08 544.73, 720.95 545.75, 723.52 546.75 C 726.08 547.74, 727.28 547.76, 728.58 548.28 C 729.87 548.79, 730.09 548.98, 730.02 549.32 C 729.94 549.66, 729.66 549.52, 728.19 549.96 C 726.72 550.40, 725.51 550.64, 722.65 551.51 C 719.79 552.38, 717.70 553.24, 713.90 554.32 C 710.10 555.40, 707.84 556.09, 703.64 556.91 C 699.44 557.72, 697.02 558.10, 692.91 558.40 C 688.81 558.70, 686.46 558.57, 683.12 558.42 C 679.78 558.27, 678.31 557.79, 676.21 557.64 C 674.12 557.50, 673.62 557.66, 672.66 557.71 C 671.70 557.75, 671.74 557.71, 671.41 557.88 C 671.08 558.06, 670.91 558.17, 671.01 558.59 C 671.11 559.00, 670.99 559.27, 671.88 559.96 C 672.78 560.65, 673.26 561.44, 675.48 562.02 C 677.70 562.60, 679.44 562.79, 682.99 562.84 C 686.54 562.90, 688.97 562.69, 693.24 562.29 C 697.51 561.88, 699.98 561.51, 704.33 560.82 C 708.67 560.14, 710.95 559.62, 714.97 558.86 C 718.98 558.10, 721.28 558.05, 724.40 557.03 C 727.52 556.01, 728.93 555.26, 730.57 553.76 C 732.20 552.25, 732.52 551.19, 732.58 549.49 C 732.64 547.79, 732.25 546.77, 730.85 545.25 C 729.45 543.74, 728.26 543.16, 725.59 541.91 C 722.92 540.66, 720.90 540.33, 717.51 539.01 C 714.12 537.69, 712.02 536.77, 708.66 535.30 C 705.29 533.83, 703.52 533.24, 700.70 531.68 C 697.88 530.11, 696.56 528.97, 694.56 527.48 C 692.55 525.98, 691.48 525.42, 690.67 524.19 C 689.87 522.96, 690.01 522.58, 690.55 521.33 C 691.10 520.07, 691.68 519.31, 693.38 517.92 C 695.07 516.53, 696.25 515.67, 699.03 514.38 C 701.81 513.09, 703.86 512.46, 707.27 511.47 C 710.67 510.48, 712.71 509.81, 716.05 509.43 C 719.40 509.05, 721.22 509.52, 723.98 509.59 C 726.73 509.66, 727.86 509.73, 729.82 509.76 C 731.79 509.78, 732.86 510.15, 733.79 509.71 C 734.73 509.26, 735.10 508.48, 734.50 507.54" style="stroke: black; fill: black;"/><path d="M 810.13,517.78 C 809.90 516.77, 809.23 515.81, 807.70 514.63 C 806.17 513.46, 805.05 512.61, 802.47 511.92 C 799.89 511.23, 798.16 510.97, 794.81 511.18 C 791.46 511.39, 789.61 511.88, 785.70 512.97 C 781.80 514.07, 779.57 514.74, 775.29 516.64 C 771.00 518.53, 768.41 519.87, 764.28 522.46 C 760.14 525.05, 758.07 526.70, 754.62 529.57 C 751.17 532.43, 749.39 533.85, 747.02 536.79 C 744.66 539.73, 743.61 541.34, 742.81 544.25 C 742.01 547.17, 742.17 548.80, 743.03 551.38 C 743.90 553.96, 744.73 555.37, 747.13 557.15 C 749.53 558.93, 751.27 559.51, 755.03 560.28 C 758.80 561.05, 761.20 561.19, 765.94 561.01 C 770.69 560.82, 773.56 560.44, 778.76 559.36 C 783.97 558.28, 786.75 557.38, 791.98 555.63 C 797.21 553.88, 800.23 552.88, 804.91 550.59 C 809.59 548.31, 811.97 546.85, 815.39 544.22 C 818.81 541.58, 820.06 540.18, 822.01 537.42 C 823.96 534.67, 824.61 533.32, 825.14 530.45 C 825.67 527.57, 825.54 525.81, 824.65 523.06 C 823.77 520.32, 822.77 518.86, 820.73 516.72 C 818.69 514.57, 817.10 513.59, 814.46 512.34 C 811.81 511.10, 809.95 510.83, 807.52 510.51 C 805.10 510.19, 803.95 510.44, 802.32 510.75 C 800.70 511.06, 799.97 511.48, 799.41 512.06 C 798.84 512.63, 798.95 513.13, 799.49 513.64 C 800.04 514.16, 800.73 514.17, 802.11 514.64 C 803.49 515.12, 804.39 515.41, 806.39 516.01 C 808.39 516.60, 809.96 516.70, 812.10 517.60 C 814.23 518.50, 815.42 519.10, 817.05 520.51 C 818.68 521.92, 819.44 522.82, 820.23 524.67 C 821.01 526.52, 821.27 527.65, 820.98 529.75 C 820.68 531.85, 820.28 532.82, 818.73 535.18 C 817.19 537.53, 816.28 539.00, 813.24 541.53 C 810.20 544.05, 807.97 545.56, 803.53 547.80 C 799.08 550.05, 796.10 551.08, 791.02 552.75 C 785.95 554.42, 783.17 555.26, 778.15 556.16 C 773.12 557.05, 770.31 557.27, 765.89 557.23 C 761.46 557.18, 759.22 556.70, 756.00 555.92 C 752.78 555.15, 751.62 554.50, 749.79 553.33 C 747.95 552.16, 747.37 551.66, 746.81 550.08 C 746.25 548.51, 746.31 547.62, 746.97 545.45 C 747.64 543.28, 748.15 541.86, 750.14 539.23 C 752.14 536.60, 753.74 535.07, 756.94 532.32 C 760.14 529.56, 762.18 527.91, 766.14 525.46 C 770.10 523.02, 772.64 521.75, 776.75 520.09 C 780.87 518.43, 783.07 517.87, 786.70 517.17 C 790.34 516.46, 792.05 516.47, 794.92 516.55 C 797.79 516.63, 798.94 517.09, 801.05 517.57 C 803.15 518.06, 803.89 518.55, 805.45 518.98 C 807.01 519.41, 807.91 519.95, 808.85 519.71 C 809.78 519.47, 810.36 518.80, 810.13 517.78" style="stroke: black; fill: black;"/><path d="M 864.02,515.46 C 863.00 515.74, 862.14 516.31, 860.65 518.08 C 859.16 519.84, 858.46 521.19, 856.58 524.28 C 854.70 527.37, 853.37 529.80, 851.26 533.54 C 849.14 537.27, 848.05 539.40, 846.00 542.94 C 843.95 546.48, 842.67 548.39, 841.00 551.24 C 839.33 554.09, 838.32 555.31, 837.64 557.19 C 836.97 559.08, 837.23 560.09, 837.62 560.65 C 838.02 561.21, 838.54 561.02, 839.63 559.99 C 840.73 558.97, 841.69 558.09, 843.11 555.53 C 844.52 552.97, 844.86 550.77, 846.69 547.18 C 848.52 543.59, 849.73 541.30, 852.25 537.59 C 854.76 533.89, 856.28 531.95, 859.26 528.65 C 862.23 525.35, 863.93 523.79, 867.10 521.11 C 870.28 518.43, 871.98 517.16, 875.12 515.26 C 878.26 513.36, 879.85 512.60, 882.80 511.60 C 885.76 510.61, 887.33 510.45, 889.90 510.28 C 892.47 510.11, 893.52 510.31, 895.67 510.74 C 897.82 511.16, 899.03 511.91, 900.65 512.42 C 902.27 512.93, 902.68 512.98, 903.76 513.31 C 904.84 513.64, 905.36 514.18, 906.03 514.08 C 906.71 513.98, 907.21 513.54, 907.14 512.79 C 907.07 512.05, 906.60 511.30, 905.67 510.34 C 904.74 509.38, 904.30 508.90, 902.49 507.99 C 900.68 507.08, 899.25 506.30, 896.64 505.80 C 894.03 505.30, 892.50 505.12, 889.44 505.48 C 886.38 505.85, 884.60 506.32, 881.33 507.63 C 878.06 508.94, 876.40 509.88, 873.09 512.04 C 869.78 514.19, 868.08 515.56, 864.79 518.40 C 861.50 521.25, 859.78 522.87, 856.64 526.26 C 853.51 529.65, 851.93 531.64, 849.11 535.34 C 846.30 539.04, 844.84 541.29, 842.56 544.78 C 840.27 548.27, 838.96 550.01, 837.68 552.80 C 836.41 555.59, 836.06 557.00, 836.16 558.73 C 836.26 560.45, 837.15 561.30, 838.17 561.42 C 839.19 561.54, 839.90 560.90, 841.26 559.33 C 842.62 557.76, 843.29 556.42, 844.97 553.56 C 846.64 550.70, 847.59 548.56, 849.62 545.01 C 851.64 541.47, 852.81 539.42, 855.07 535.82 C 857.34 532.21, 859.04 530.02, 860.95 526.98 C 862.86 523.94, 863.66 522.68, 864.62 520.62 C 865.58 518.55, 865.88 517.67, 865.76 516.64 C 865.64 515.61, 865.04 515.17, 864.02 515.46" style="stroke: black; fill: black;"/><path d="M 980.82,526.09 C 980.76 525.13, 980.56 524.03, 979.03 522.82 C 977.49 521.60, 976.20 520.35, 973.16 520.01 C 970.11 519.68, 967.98 520.07, 963.80 521.14 C 959.61 522.21, 957.08 523.34, 952.22 525.35 C 947.37 527.36, 944.47 528.56, 939.52 531.19 C 934.58 533.82, 931.79 535.50, 927.51 538.51 C 923.23 541.52, 921.12 543.27, 918.10 546.25 C 915.09 549.22, 913.66 550.52, 912.44 553.39 C 911.22 556.26, 911.30 558.00, 912.02 560.61 C 912.75 563.22, 913.74 564.67, 916.07 566.44 C 918.39 568.21, 920.12 568.90, 923.64 569.48 C 927.16 570.05, 929.35 569.80, 933.65 569.31 C 937.96 568.81, 940.35 568.38, 945.17 567.01 C 949.99 565.65, 952.63 564.81, 957.77 562.48 C 962.90 560.14, 965.83 558.48, 970.86 555.35 C 975.89 552.22, 978.43 550.34, 982.91 546.82 C 987.39 543.30, 989.65 541.29, 993.26 537.76 C 996.87 534.23, 998.83 532.26, 1000.97 529.17 C 1003.11 526.08, 1003.79 524.60, 1003.97 522.30 C 1004.15 520.00, 1003.44 518.75, 1001.88 517.66 C 1000.33 516.57, 998.63 516.08, 996.19 516.85 C 993.74 517.63, 992.13 519.03, 989.64 521.53 C 987.16 524.03, 985.95 526.00, 983.76 529.36 C 981.56 532.72, 980.41 534.63, 978.68 538.33 C 976.95 542.02, 976.08 544.27, 975.10 547.82 C 974.13 551.37, 973.78 553.08, 973.82 556.08 C 973.86 559.09, 974.10 560.33, 975.29 562.85 C 976.48 565.36, 977.48 566.76, 979.78 568.66 C 982.07 570.55, 983.93 571.36, 986.76 572.33 C 989.59 573.31, 991.37 573.39, 993.93 573.52 C 996.50 573.65, 998.36 573.54, 999.56 572.99 C 1000.76 572.44, 1000.87 571.67, 999.94 570.76 C 999.01 569.85, 997.19 569.24, 994.93 568.43 C 992.67 567.62, 991.07 567.49, 988.65 566.70 C 986.22 565.91, 984.71 565.63, 982.81 564.48 C 980.91 563.32, 980.02 562.62, 979.14 560.95 C 978.26 559.27, 978.37 558.49, 978.42 556.09 C 978.47 553.69, 978.54 552.15, 979.37 548.96 C 980.20 545.78, 980.91 543.56, 982.56 540.17 C 984.20 536.79, 985.39 534.99, 987.60 532.04 C 989.81 529.09, 991.47 527.63, 993.61 525.43 C 995.74 523.24, 996.86 522.20, 998.27 521.07 C 999.68 519.94, 1000.15 519.66, 1000.64 519.78 C 1001.13 519.89, 1001.30 520.21, 1000.74 521.66 C 1000.18 523.10, 999.78 524.21, 997.84 527.00 C 995.91 529.78, 994.39 532.06, 991.05 535.59 C 987.72 539.11, 985.49 541.15, 981.16 544.62 C 976.83 548.10, 974.31 549.94, 969.39 552.97 C 964.47 555.99, 961.57 557.59, 956.56 559.75 C 951.55 561.91, 948.97 562.64, 944.32 563.74 C 939.67 564.85, 937.29 565.09, 933.32 565.29 C 929.34 565.50, 927.37 565.30, 924.44 564.78 C 921.51 564.26, 920.43 563.72, 918.66 562.68 C 916.89 561.63, 916.10 561.08, 915.60 559.55 C 915.09 558.02, 915.15 557.20, 916.15 555.03 C 917.16 552.85, 917.97 551.49, 920.61 548.70 C 923.24 545.91, 925.26 544.02, 929.34 541.07 C 933.41 538.13, 936.15 536.46, 940.98 533.97 C 945.81 531.49, 948.75 530.34, 953.49 528.63 C 958.23 526.93, 960.87 526.03, 964.68 525.46 C 968.49 524.90, 970.09 525.55, 972.54 525.81 C 974.98 526.06, 975.54 526.36, 976.90 526.72 C 978.27 527.08, 978.57 527.72, 979.35 527.60 C 980.13 527.47, 980.89 527.04, 980.82 526.09" style="stroke: black; fill: black;"/></svg>